<svg xmlns="http://www.w3.org/2000/svg" width="662" height="319" fill="none" viewBox="0 0 662 319"><path fill="#fff" fill-rule="evenodd" d="M284.374 1.708c1.241 8.662.215 19.586.55 29.154 3.999-1.016 7.922-5.934 13.752-4.402 7.616 2.005 6.963 15.846 7.702 25.302 8.316.243 4.855-9.298 4.4-14.85-1.101-13.38 5.426-32.072 16.5-34.103 22.951-4.21 20.993 29.509 1.652 30.254-7.662-6.935 4.861-10.117 4.948-17.602-14.274-6.002-18.543 26.083-3.298 24.751 11.055-.965 12.318-27.76 23.653-14.85-2.118 6.933-4.517 13.28-8.252 17.601-1.96 2.265-7.381 7.409-11.55 8.25-2.958.598-6.453-1.316-9.902-.55-7.023 1.562-10.062 16.497-21.451 14.302-10.731-2.068-3.123-26.835-11.549-26.951-7.141-.1-7.587 17.62-7.151 27.5.258 5.887 1.121 12.798-3.302 13.752-9.72 2.1-7.149-18.519-7.149-27.503V17.66c-3.369 1.793-10.697 2.13-12.652 6.6-1.581 3.617-.364 12.338-.547 17.603-.245 6.966.363 14.532 0 22.552-.535 11.745 3.187 25.397-4.952 29.153-7.988-5.562-4.951-21.038-4.951-33.554 0-13.196.847-26.88-1.102-36.854-8.106 1.409-12.675 2.196-15.952 6.602-4.372 5.881-4.162 16.4 1.1 20.352 5.005 3.758 13.271.512 14.3 6.052.919 4.924-4.444 6.83-7.149 7.15-8.084.96-18.123-6.921-20.354-13.752-4.183-12.833 3.904-27.314 13.201-32.452 14.848-8.206 35.183-1.362 42.905-17.053 3.016-.267 5.115.385 6.6 1.65M99.555 107.318c11.96 7.622 18.901 24.718 13.751 41.804-9.006 29.88-48.926 28.539-86.909 25.3.16-6.786 5.213-12.583 8.801-18.699 7.098-12.105 13.65-23.391 20.902-36.306 3.032-5.395 7.05-14.606 15.952-10.998 3.995 10.735-5.247 19.105-9.902 26.952a699 699 0 0 0-14.302 25.301c25.552 2.586 57.621.495 53.355-26.403-.768-4.85-4.328-9.995-7.149-13.201-4.891-5.556-13.59-6.472-10.451-17.602 1.887-6.687 13.42-11.02 19.251-18.151 22.819-27.907 2.059-64.111-27.503-69.857-20.46-3.978-51.674 4.537-59.405 20.903-3.737 7.908-3.625 19.939-.55 26.951 2.496 5.696 15.985 13.194 6.6 20.903-29.124-4.748-27.019-50.854-7.15-67.657C38.655-3.574 89.67-3.231 111.659 18.76c24.328 24.327 15.857 71.428-12.102 88.557z" clip-rule="evenodd"/><path fill="#fff" fill-rule="evenodd" d="M451.587 105.666c11.414 8.947 18.979 28.84 12.103 46.755-4.041 10.529-16.374 20.716-29.703 22.552-16.3 2.242-36.632-1.187-56.106-.553 6.256-16.002 17.264-34.078 26.951-50.605 3.68-6.271 6.84-18.189 17.604-14.849 5.952 9.326-3.187 18.623-7.702 25.853-5.145 8.241-10.731 16.21-14.304 24.201 5.447 3.488 13.461 2.44 19.802 2.202 16.265-.61 29.974-5.161 32.455-18.703 2.494-13.63-4.116-20.647-11.002-25.851-3.57-2.696-8.049-4.233-8.801-7.702-1.769-8.162 7.643-11.41 13.749-16.503 9.811-8.175 18.493-22.051 15.406-42.351-2.809-18.454-18.007-32.729-38.508-34.653-28.552-2.684-63.568 9.006-59.406 40.154.652 4.872 5.06 8.688 4.95 14.3-.104 5.497-7.197 13.603-9.899 18.703-3.694 6.974-6.404 11.898-9.9 18.701 11.099 6.297 22.013 13.586 18.701 31.903-1.349 7.444-8.774 15.995-13.751 23.104-13.801 19.686-35.872 42.069-64.357 44.551-23.809 2.081-192.765.551-250.272.551-8.114 0-28.874 2.555-29.152-6.604-.284-9.353 18.895-7.148 27.5-7.148 59.518 0 225.693 1.834 248.623 0 24.663-1.967 43.464-22.248 56.106-39.599 3.477-4.778 10.733-12.809 11.55-18.152.741-4.866-2.35-12.93-6.052-13.752-9.377-2.085-13.694 11.47-19.25 19.801-5.818 8.727-11.795 16.432-17.601 21.449-9.2 7.951-25.774 19.097-41.804 13.206-3.666-1.349-8.171-7.519-11.554-7.703-2.94-.158-5.229 3.576-7.698 4.95-8.995 4.998-17.092 2.568-25.303-4.95-6.896 2.324-12.071 7.14-19.801 7.151-11.388.019-19.275-9.414-24.202-17.055-12.952 8.352-32.409 22.916-50.605 13.751-5.996-3.018-12.758-11.141-13.201-20.349-.785-16.294 12.471-38.343 24.751-44.004 15.219-7.016 36.297 1.095 33.005 20.349-.873 5.1-8.562 13.114-14.302 15.952-5.658 2.799-28.04 8.277-24.204-4.951 2.72-9.379 25.428-3.085 23.103-18.151-8.968-6.034-17.396 2.448-22.003 9.35-2.499 3.742-10.446 20.534-3.85 27.503 6.134 6.478 21.119.077 28.602-3.853 6.855-3.598 12.126-8.386 17.051-13.747 4.469-4.87 7.712-12.251 12.651-18.154 7.04-8.414 24.106-18.78 37.403-14.3 3.782 1.274 10.8 6.554 12.652 13.201 4.108 14.743-7.364 21.402-7.7 35.755 1.959 7.488 10.654 5.751 14.3 0 3.226-5.09 3.468-12.998 6.052-19.256 7.259-17.595 19.571-35.671 47.854-28.601 9.197 5.301 11.587 30.312-3.851 30.804-5.984-3.143-3.083-11.061-3.852-17.604-10.958-4.074-19.673 6.38-24.202 14.3-4.639 8.118-6.949 22.239 3.301 25.854 13.917 4.908 30.239-10.614 35.754-18.152 3.867-5.289 6.933-12.255 11-18.7 7.688-12.176 14.231-22.445 22.004-36.305 3.221-5.749 9.318-14.403 9.898-19.251.487-4.044-1.469-8.873-1.648-11.551-2.644-39.435 29.909-60.734 71.507-57.756 31.411 2.25 52.716 24.094 54.452 55.556 1.236 22.197-8.618 37.175-25.294 48.953zm-238.171 18.701c-4.099 1.899-11.924 9.844-16.015 17.902-12.193 24.009 17.617 24.681 27.858.398 1.265-2.997 4.383-13.539 2.461-17.201-1.935-3.68-11.164-2.55-14.304-1.1z" clip-rule="evenodd"/><path fill="#fff" fill-rule="evenodd" d="M530.796 117.77c6.432-4.377 10.594-13.222 24.752-10.451 4.215.824 9.365 6.146 9.9 11 1.489 13.507-16.512 20.484-13.202 35.204.99 4.396 6.06 7.821 13.202 6.6 9.659-1.653 14.696-15.912 19.802-25.853 3.025-5.896 5.283-9.563 8.25-14.853 3.44-6.133 5.937-11.957 9.901-12.65 3.373-.589 7.588.85 8.801 3.85 2.499 6.192-6.644 15.967-9.353 20.906-11.23 20.47-22.226 40.972-33.005 61.052 30.998 1.057 65.921 1.161 67.108-24.75.739-16.109-15.724-25.227-18.151-39.056-3.203-18.248 16.211-28.21 31.901-21.451 3.515 1.513 8.277 6.72 9.902 11.55 1.733 5.144 2.681 16.315-3.849 17.054-9.141 1.029-9.738-25.461-22.554-12.105 1.652 17.387 16.96 20.524 17.603 40.154.645 19.77-15.465 39.168-36.304 41.804-18.442 2.331-30.634-.956-52.256.55-22.171 28.64-39.666 70.171-68.206 93.51-10.693 8.743-26.835 18.462-44.552 18.703-16.555.22-30.029-9.261-37.405-18.703-6.567-8.402-13.563-22.493-13.201-37.952.643-27.407 15.116-41.042 30.249-55.007-8.869-.259-23.862 0-35.751 0-10.445 0-31.129 2.793-32.454-5.499-1.653-10.348 14.766-8.254 29.153-8.254h73.703c10.353 0 30.957-2.514 35.756 1.103 1.692 1.276 2.83 7.16 1.65 9.349-2.329 4.316-13.341 2.391-19.803 2.75-33.429 1.853-60.399 18.841-68.756 45.106-8.057 25.321 14.055 49.524 33.554 51.704 1.859.207 5.117.215 7.7 0 23.377-1.94 40.202-21.697 53.906-39.603 14.261-18.636 25.996-37.556 35.753-57.206-11.641-2.021-37.603 5.643-36.306-7.698 1.098-11.241 32.308-3.373 41.804-6.053 6.792-1.911 8.214-8.961 10.453-14.3-10.391-9.213-25.527-10.798-22.004-34.103 1.329-8.796 7.943-13.845 10.999-22.002-4.487 1.714-11.683 6.178-15.951 10.45-13.498 13.513-13.354 42.291-40.704 42.354-11.082.027-20.842-5.47-24.2-13.202-8.782-20.215 10.359-42.951 21.448-51.708 3.906.134 5.325 2.749 7.703 4.405 5.733-13.961 29.779-11.182 33.015 3.299zm-19.802 6.047c1.545 1.236 3.341 2.044 4.951.551.562-4.112-4.896-4.023-4.951-.551m-15.953.551h-1.65c-7.821 6.853-20.153 37.978 1.1 36.305 10.006-.788 15.153-13.334 17.604-21.452-9.038-1.596-13.906-7.363-17.053-14.853z" clip-rule="evenodd"/></svg>