<svg xmlns="http://www.w3.org/2000/svg" width="209" height="209" fill="none" viewBox="0 0 209 209"><g fill="#fff" clip-path="url(#a)"><path d="M26.968 0C12.074 0 0 12.074 0 26.968V182.03c0 14.894 12.074 26.968 26.968 26.968H182.03c14.894 0 26.968-12.074 26.968-26.968V26.968C208.998 12.074 196.924 0 182.03 0zm0 13.484H182.03c7.447 0 13.484 6.037 13.484 13.484V182.03c0 7.447-6.037 13.484-13.484 13.484H26.968c-7.447 0-13.484-6.037-13.484-13.484V26.968c0-7.447 6.037-13.484 13.484-13.484"/><path d="M94.386 141.579v13.484h74.161v-13.484zm0-87.644v72.475h15.169V67.419h15.169v58.991h15.17V67.419h10.112a5.057 5.057 0 0 1 5.057 5.056v53.935h15.169V70.79c0-9.309-7.546-16.855-16.855-16.855zm-38.766 0c-9.308 0-16.854 7.546-16.854 16.855v38.765c0 9.309 7.546 16.855 16.854 16.855h13.484v3.371c0 6.516-6.037 11.798-13.484 11.798h-8.427v13.484h8.427c15.825 0 28.653-11.319 28.653-25.282V53.935zm3.371 13.484h10.113v45.507H58.991a5.057 5.057 0 0 1-5.056-5.056V72.475a5.057 5.057 0 0 1 5.056-5.056"/></g><defs><clipPath id="a"><path fill="#fff" d="M0 0h209v209H0z"/></clipPath></defs></svg>