<svg xmlns="http://www.w3.org/2000/svg" width="460" height="243" fill="none" viewBox="0 0 460 243"><g fill="#fff" clip-path="url(#a)"><path d="M227.284 243c-54.624 0-100.813-35.976-116.181-85.505-.048-.239.048-.478.287-.521.239-.048.478.048.521.286 16.077 45.012 61.641 77.464 115.354 77.464s99.278-32.452 115.354-77.464c.048-.238.287-.334.541-.286.239.047.335.286.287.521C328.079 207.024 281.907 243 227.284 243m-54.59-185.425c-.047-.086-.335-.373-.43-.44-.335-.234-.488-.22-.76-.153-.287.067-.335.153-.541.22a1.2 1.2 0 0 1-.727-.017c-.487-.152-.808-.775-1.181-1.197-.095.12-.287.354-.287.354-1.315-.573-2.649-.826-4.084-.387-.143.034-.382-.134-.54-.186-.521 1.045-1.621 1.213-2.596 1.415-.431.086-.861.287-1.301.523-.239.167-.478.691-.727.877-.239.22-.507.12-.727.353-.727.793-1.234 1.703-1.248 2.546-.017.658-.239 1.18-.928 1.483-.287.134-.607.42-.741.709-.741 1.45-1.501 2.933-2.108 4.467-.24.624-.335 1.484-.66 2.057-.522.961-.287 1.82-.096 2.765.191.978.741 3.203.741 3.203-3.056.067-7.895.234-11.741.42-.034-.488-.994-2.04-1.181-2.326-.191-.267-.674-1.736.287-2.748.335-.387 1.401-1.921 1.401-2.916.033-2.461-.98-5.159-1.215-7.165 1.215-1.753-.048-3.523.048-5.31 0-.053-.239-.268-.335-.387 1.249-1.585 1.703-4.214.842-4.704-2.836 3.49-1.181 8.143-2.917 11.987-.144.522-.383 1.011.143 1.584.488.506-.382 2.546-.707 2.225.478-.96-.861-1.803-1.502-2.68-.191-.253 0-.556 0-.826 1.095-1.113 1.621-2.276.574-3.726-.287-.406-.191-1.062-.287-1.584 1.248-.489 1.941-1.383 1.654-2.495-.286-1.147.048-2.158.479-3.17.521-1.247 1.081-2.495 1.621-3.776.335-.826.574-1.618-.017-2.343-.095-.12-.143-.34-.095-.42.66-1.805 1.549-3.49 2.615-5.143a26 26 0 0 1 2.31-3.557c-11.927 9.88-21.712 21.832-28.712 35.268a.46.46 0 0 1-.383.234c-.239 0-.43-.2-.43-.44l.034-.167c9.48-21.157 24.73-39.111 44.113-51.924C180.225 6.946 203.387 0 227.308 0s47.083 6.946 66.955 20.078c19.383 12.813 34.633 30.767 44.114 51.924l.034.167a.44.44 0 0 1-.43.44.49.49 0 0 1-.383-.22c-1.521-2.967-3.204-5.816-4.994-8.597-.841-.658-1.669-1.265-2.142-2.31-.383-.877-1.941-1.163-2.63-1.939-.708-.792-1.569-1.534-2.042-2.461-.961-1.922-2.596-3.001-4.485-3.996-1.889-1.264-3.391-3.085-5.382-4.383-.191-.1-.334.167-.477.354.286 1.382 1.348 2.545 2.63 3.422 1.214 1.095 1.955 2.596 3.576 3.371 1.502.91 2.683 2.293 3.998 3.473l-.048.086-.239.32c-.382-.287-.794-.573-1.181-.86l-.096.053c.191.44.24 1.012.555 1.197.961.64 1.129 1.652.995 2.394l-.048.32a1.6 1.6 0 0 0-.048.406v.053c-.017.1-.017.167-.017.286 0 .523.096 1.012.239 1.5.048.269.096.54.192.827-.909-.607-1.837-1.163-2.716-1.804-.192-.153-.192-.556-.288-.86v-.136c.383-.607 1.383-.22 2.21-.354-.827-3.118-3.644-4.382-5.988-6.321-1.095-.894-2.095-1.889-3.056-2.9-.761-.827-1.569-1.754-2.697-2.023-.239.301-.479.54-.641.894-.191.372-.096 1.348-.488 1.264-.894-.186-2.209-.894-3.003-.301-.191.44-.016 1.281.431 1.602 1.114.927.43 1.82-.431 2.528-.621.59-.588 1.602-.588 2.394 0 .32-.048.809.096.944 1.281.826.588 2.09.808 3.153-.017.876-.096 2.242-1.148 2.36-2.783.234-3.864 2.731-4.351 2.023a43 43 0 0 1-1.521-1.4c-.626-.623-1.162-.927-2.056-.267-.431.32-1.196.253-1.856.354-.191-.607-.287-1.13-.478-1.568-.239-.59-.287-1.23-1.215-1.383-.286-.033-.726-.12-.66-.96.24-2.766-.927-4.873-2.548-7.014-.144-.22-.761-.44-.808-.708-.144-.674.521-.253.98-.573.43-.3-.033-.86 1.535-.742 2.429.187 4.892-.3 7.642-.523-1.502-2.191-1.736-3.86-2.262-4.45-.43-.523-2.023-1.534-3.343-2.225-.334-.167-.808-.234-1.214-.22-.995.034-1.836-.187-2.41-1.062.861-1.316 2.329-.168 3.51-.776-.431-.454-1.267-1.062-1.282-1.416.555-.253 1.535.268 2.109.387.335-.556.641-.961.961-1.483-.143-.268-.707-.877-.588-1.096 1.301-1.332 1.435-.793.808-2.58.239-.186.555.523.894.91.096-.453.809-.91-.674-1.753-.095-.086.335-.253.588-.44.192-.133-.016-.353.192-.439.478-.186 1.08-.1 1.233-.267-1.267-1.012-2.242-2.074-3.476-3-.894-.608-1.334-1.299-.727-1.99.694.387 1.401.741 2.075 1.13.431.472.096.994.895 1.28.191-.133 1.195-.2 1.248-.406.095-.234-.675-.708-.761-.876-.382-.658-2.108-1.972-2.697-1.99-.741-.033-2.022-.91-2.582-1.433.191.168-.335.387-.335.557-.43 1.719-2.481 1.061-3.137-.087-.143-.22-.626-.052-.793-.253-1.162-1.315-1.114-1.012-2.53-1.804-.095-.086-.034-.32-.096-.708-.095-1.012-1.449-1.585-1.449-1.837 0-.268 1.129-.12 1.268-1.854a126.6 126.6 0 0 0-21.543-9.07c-.98.134-1.941.353-2.749.725-1.382.725-3.056.657-4.625.353-.76-.134-1.081.187-1.415.81-.287.522-1.062.556-1.535.994l.335.708c-.383.708-.861 1.13-1.368 2.057-1.449-.556-2.683-1.265-4.184-1.518-1.655-.267-2.951-.977-4.031-2.208-1.162-1.281-2.85-2.225-3.878-3.641-.287-.387-.335-1.012-.24-1.45.096-.34.56-.54 1.014-.658.287-.033.641.1.928.086.287-.033 1.028-.826 1.334-.96-3.696-.523-7.423-.91-11.168-1.147.961.234 1.655.742 2.095 1.635a31 31 0 0 1-1.401-.086l-.034.201c2.429 1.062 6.107 2.36 6.933 3.17.048.219-.808.439-2.75.994-.478.1-1.181-.86-4.064-1.889-.096-.033-.488.22-.479.235.096.306.24.657.488.843.928.607 1.923 1.18 3.018 1.82-.608.455-1.803.101-1.234 1.383a685 685 0 0 0-3.811-2.074l-.096.134c.675.556 1.334 1.08 2.009 1.619-.048.1-.096.186-.192.3-2.109-.42-4.098-1.264-6.141-1.955-.239-.1-.793-.809-.98-1.011 0 0-1.922-1.063-2.835-1.332a10 10 0 0 0-3.19-.387c-1.148.053-1.401-.387-1.401-.387s.382-.708.947-.758c.554 0 2.022.387 2.902.44.894.1 2.21.219 2.21.219-.096-.387-.144-.54-.192-.793.961-.12 1.923-.253 2.97-.386-.239-.523-.048-1.4-1.129-.658-.191.134-.693-.134-1.267-.234.335-.22.488-.302.641-.421-.335-.053-.742-.086-1.028-.22a2.9 2.9 0 0 1-.842-.657c-3.844.034-7.676.22-11.488.573.487 1.264 2.075 1.315 2.883 2.63-1.282-.187-2.563-.54-3.811-.675-.708.017-1.621.44-2.296.373-.478-.053-.793-1.13-.841-1.096.554-.54 1.587-.792 2.663-1.096-2.481.254-4.942.59-7.388.961-7.288 1.484-9.431 3.642-10.459 4.687 0 0 1.301.708 1.721.978-.334.556-.607 1.045-.841 1.433 1.128.354 4.117 1.332 4.976 1.888 1.483 2.326 4.352 2.158 6.714 2.95-.521.742-.641 1.534-1.095 2.226-.096.153-.096.454 0 .64.287.608.335 1.046.708 1.653.095.134.334.353.487.34 3.357-.087 3.137-1.097 3.644-3.777 1.636-.22 5.685-.086 6.107-2.04.048-1.096-1.114-2.108-1.956-2.377.048-.1.144-.235.192-.354.622-.034 2.209-.658 2.41-.876-.287-.387.095-.44-.431-1.062.574-.12.861-.12.995-.506.033-.1 0-.373-.048-.54a.37.37 0 0 1 .034-.3.42.42 0 0 1 .382-.154c1.689.187 3.443.454 5.112.86.76.22 1.688.59 2.109 1.18.86 1.23 2.056 1.18 3.136 1.619-1.028 1.096-.382 2.208.675 2.9 2.31 1.669 4.758.473 6.832-.675.727 1.08 2.769 2.95 3.577 3.928 0 0-.239.658.727 2.276 1.014 1.67 3.797 2.41 5.718 3.237-.593.623-.286.86 2.482 2.158-.047.454-.016.927-.334 1.197-.478.44-1.201.624-1.669.742-.727.22-1.416.052-1.989-.034-.842-.134-1.669-.187-2.497.134-1.654.64-3.203.454-4.858-.017-2.482-.709-4.976-1.315-7.49-1.888-1.028-.253-2.09-.301-3.037.473-.287.234-.961.134-1.468.22-1.301.2-4.591 1.382-5.719 1.955 2.97-.725 6.006-1.45 9.717-1.315.627.033 1.215.167 2.056.657.24.134.507.44.431.691-.034.187-.479.407-.708.407-.827.067-1.654.034-2.482.034-.017.1-.048.186-.048.267.761.086 1.502.186 2.449.287-.541.286-.995.506-1.468.776.382 1.753 1.802 2.46 3.591 2.798.554.1 1.401.44 1.975.64a86 86 0 0 0 2.835-1.517c.24-.134.555-.034.287.301-.559.556-.095.523-.239.792.239.22.541.473.808.708.096.086.096.168-.047.254-1.196-.187-1.162.32-2.616.1-.096.153.382.44-.383.387-2.697-.017-5.415-.44-8.03.49-.554.2-1.161.339-1.534-.321-.144-.22-.383-.523-.335-.691.095-.268.43-.54.693-.59.894-.2 1.822-.301 2.769-.691-.048-.557-1.956-.254-3.663-.268-.693.54-3.084.454-4.605.32-1.855-.234-4.165.473-5.095 1.872-.143.234.048.623.287.792.239.22 1.095.287 1.047.59-3.964.034-5.026-.86-7.186-.657 0 .067.287.153.191.372.287.053.589.1.861.201.239.086.827.12 1.234.167.096.053.096.12 0 .167-.607 0-1.535.053-1.769 0-.541-.186-1.062 0-1.449 0-.431.573-1.148.573-1.502.928-.382.3-.741 1.5-1.401 1.365-.017-.59-.622-.741-.841-1.011-.096.067-.24.12-.335.167.674 2.107-1.521 1.99-2.109 3.203-.239.167-.191-.167-.287-.22.239-.3.239-.54.382-.69-.334-.407 0-1.316 0-1.905-.095-.168-.43-.12-.521.22-.286.977-.674 1.77-.478 2.78.541 1.097.017 2.193-1.214 2.496-.335.1-.981 0-.809.691 0 .017-.478.234-.76.234-1.602-.017-2.377.253-3.189.961-2.262-.22-3.778 1.5-5.787 1.972-1.08.254-2.142 1.096-2.816 1.94-1.382 2.106-.335 5.057-.775 7.417-.191 1.062-1.334 2.242-1.434 3.068 0 0-.192.017-.335.034-.335.017-1.234.32-1.535-.086.382-.742-.588-2.057-.875-3.187-.287-1.061-.287-2.478.191-3.49.287-.59.287-.724-.287-1.23a1 1 0 0 1-.287-.42c-.383-1.063-.774-1.366-1.941-.877-.555.268-1.028.167-1.416-.489-.287-.473-1.081-.775-1.688-1.045-.693-.268-1.568.42-2.262-.489-.239-.301-2.228.268-2.936.34-.095.052.24.657-.191.893-.095.086-.287.134-.239.287 0 .052.239.454.143.556-.191.167-.287.167-.287.167zm133.118-21.562c.66-1.28-.827-1.972-1.755-2.562-.287-.167-.741-.067-1.281-.12.287.407.382.624.588.877-.239.1-.478.186-.693.268.095.3.143.573.286 1.011-.64-.167-1.08-.301-1.535-.406l-.095.186c.641.306 1.281.624 2.008.961.287-.775.708-.994 1.415-.22.144.187.995.14 1.062.005"/><path fill-rule="evenodd" d="M226.93 9.006c.287 1.366-1.975.624-2.869.54.961-1.063 1.974-.49 2.869-.54" clip-rule="evenodd"/><path d="M249.349 35.271c-2.09.287-2.008 1.08-2.242 1.619.726.1 1.888-.134 2.548-.053l.096.234c-.144.067-.239.134-.593.301 1.621.523 3.07.962 4.571 1.4-.143.44-.741 1.011-.875 1.366.827.473 1.502.2 1.55.339.095.134-.947.59-1.335.86l.096.167c.43-.134 1.382-.523 1.521-.44.382.287-.479.387-.675.944.479-.066.928-.234 1.162-.286.096.133-.095.253.144.44-.775 1.432-.693 1.45-1.602.74-.095-.085.335-.386-.033-.623-.144-.086-.24.234-.574.373-.239-.1-.478-.153-.775-.22.096-.287.741-.556.335-.978-1.282.201-2.616.32-3.778.268-.287-.067-.191-.268-.017-.32.694.017 1.703-.167 1.655-.268-1.569-.473-2.884-.775-4.318-1.214-1.349-.44-3.644-.1-4.165-1.011-.478-.843 1.669-2.428 3.945-3.692.488-.301 1.836-.556 3.156-.607.143.067-.132.526.203.661"/><path fill-rule="evenodd" d="M315.36 53.815c.478 1.281 1.248 2.04 1.234 2.782-1.062-.523-1.621-1.113-1.602-1.82.016-.302.368-.288.368-.962" clip-rule="evenodd"/><path d="M231.856 37.581c.191-.067.478-.42.64-.556.66 1.584 2.377.977 3.544 1.753-.588.134-1.115.268-1.655.406-1.434-.623-1.568-.726-2.529-1.603m1.365-4.164c1.402-.253 3.123.523 4.405 1.77l-.144.301c-1.941-.523-3.352-1.447-4.261-2.07m47.911 7.164c.191-.574.095-1.18-.096-1.45-.641-.387-.574-.407-1.215-.793.034-.1-.095-.54-.095-.657.555-.268.693-.454 1.061-.759.574-.724-.239-.792-.095-.994a4.66 4.66 0 0 1 2.529-1.619c.431.388.861.776 1.416 1.265-.017.034-.144.387-.239.556.573.54 1.468 1.163 1.769 2.697-1.435 1.265-2.683 2.445-3.524 2.9-.431.268-1.047.253-1.349.034-.191-.168-.354-.473-.162-1.18m3.847-5.833c-.096-.268-.144-.506-.24-.76-.287.087-.382-.085-.928.102.287-.506.335-.523.508-.793l-.288.153c-.239-.34-.382-.742-.659-.995-.383-.353-.894-.572-1.196-.741.335-.607.675-1.146 1.028-1.703.507 0 1.2 0 2.076-.017-.761 1.18-.383 1.467.793 1.282 1.014-.153 1.636.22 1.569 1.315-.034.339.048.69.048.792 2.295 1.67 5.078 2.495 6.545 4.956 1.029-.96 2.664-.167 2.195 2.276.287.1.574.235.861.373-.017.12-.017.234-.017.253-.43.776-3.945.641-5.398 1.265-.775.32-.287-.944-2.582.167 1.014-2.225 1.482-1.568 2.022-2.04a91 91 0 0 1-2.783-.624c.828-.454 1.535-1.533.335-1.618-.191-.017-.191-.44-.335-.742h1.282c.095-.086.143-.186.239-.234-.574-.96-.947-1.264-1.822-2.023-.827-.034-2.362.978-2.142-1.18-.478.22-.777.35-1.111.536l-.049.004Zm33.013 26.653c-.287-1.636-1.267-2.159-1.788-3.271-.096-.2.334-.607.573-.994 1.096 1.163 1.942 2.68 2.057 3.557.047.523-.287.086-.555.826-.096-.034-.287-.033-.287-.118m-96.224 134.411c0-.43-.895-.191-1.502-.096-.191.018.507.383-1.789 1.84.335 0 1.942.034 1.401.287-1.841 1.481-3.663 2.461-5.651 3.675-.191.095-.487.143-.64.096-.981-.641-2.229-.001-3.204-1.315-.383-.554-1.014-.477-1.263-.64-.095-.033-.521-1.013-.674-.927-.048.048-.507.287-.478.43.048.191.335.54.335.54.478.521 1.233 1.094 1.621 1.601.047.096-.035.521-.288.927-.095.191-.095.674.144 1.113.096.239.574.144.507.574-.143.874-1.836 2.107-2.836 2.055-1.267-.017-2.529-.144-3.777-.287-1.062-.143-1.975.64-1.688 1.701.191.607-.034.793-.479.76-1.147-.096-2.195-.334-3.223-.946-.143 1.754.017 1.94 1.468 2.207.24.048.431.541.742.909-1.028.334-2.41.095-2.124 1.467.096.334-.143.74-.238 1.094-.608.239-1.77.239-1.99.64-.287 1.448 1.234 1.248 2.276 1.94.048.431.048.842-.048 1.014-.334.382-1.181.96-1.587 1.266.033.487.095.86-.096 1.061-.287.048-.727.239-1.028.287.191.96.827 1.586 1.062 1.973-.034.191-.761-.191-1.234-.239l1.52.994c.876.507.507.674 1.335 1.434.774.693 1.162.826 1.128.912-.047.144.144.875-2.228.096-2.817-.912-3.544-1.266-6.849-4.468 0 0-1.769-1.586-2.97-4.922-.095-.239-.382-.541-.239-.741.096-.144.287-.191.66-.144-.034-.334.034-.86-.143-.994-.287-.239-1.268.287-1.316-.382.383-.994.555-.774.727-1.735.048-.286-.287-.625-.287-2.021 0-.239.383-.335.555-.191.287.607.521 1.448.947 1.835-.478-2.901-.096-2.055-.383-4.181-.334-.43-.478-.192-.588-.192v2.074c-.841-.095-1.147-.382-.961-1.667.034-.191.335-.048.017-.66-.287-.521-.192-1.333-.192-1.768.56-1.501.048-2.882-.573-4.162-.828-1.587.017-1.095.191-1.754.842-2.767 2.162-5.479 1.382-8.564-.239-.875-.708-1.888.143-2.781.096-.096.048-.383 0-.555-.506-1.481.192-2.781.507-4.162.192-.927.287-1.888.383-2.834.191-1.553.382-3.135.239-4.688.033-1.094-.034-1.62.095-2.446.096-.727.661-1.415.694-2.16.034-1.687-.096-3.374-.191-5.058-.017-.287-.096-.659-.287-.874-2.076-2.495-4.151-4.957-6.967-6.609-2.023-1.194-2.951-3.254-4.051-5.715-.191-.382-.382-.927-.64-1.5 17.054-.54 34.076-.843 51.063-.826 12.771 0 27.65.086 40.437.387-.096 1.753-.192 3.776-.192 4.113-.191 2.428-.607 2.561-1.668 4.788-.914 1.768-2.43 2.562-3.764 3.575-2.075 1.586-4.504 2.661-6.394 4.501-.674.54-1.281 1.381-2.042 1.601-3.189.826-2.716 3.842-3.878 6.136-1.081 2.447-2.482 3.522-3.945 6.019-.641.875-1.855 1.414-2.769 2.074-.64 1.567-2.089 2.141-3.356 2.968-1.162.334-2.444-.43-3.644-.559-1.129-.191-2.53.607-2.936 1.433-2.277-.382-3.678.621-5.601 1.501-1.468.621-1.822 1.94-1.788 3.254.034 1.013-.383 1.587-1.096 1.974-1.501.827-2.582 2.021-3.777 3.254-.507.521-.913.573-.98.573-.018.017-.41.052.953-1.19m181.853-48.467c-1.415-3.726-2.85-7.418-4.284-11.11-7.862-.641-15.74-1.231-23.601-1.787l-4.304 10.469c-4.772-.32-9.548-.641-14.322-.911 8.149-18.51 16.28-37.004 24.427-55.413 1.99.153 3.998.287 5.989.44 2.008.152 3.998.286 6.006.453a52885 52885 0 0 1 24.393 59.089c-4.758-.44-9.529-.826-14.304-1.23m-23.144-24.445c4.705.354 9.413.708 14.12 1.079-2.363-6.086-4.706-12.155-7.069-18.241-2.344 5.732-4.705 11.447-7.051 17.162m-217.82 18.342a30960 30960 0 0 0-23.483-56.155c4.994-.22 10.004-.42 14.997-.607 4.519 11.767 9.043 23.535 13.563 35.302 4.524-12.037 9.043-24.074 13.563-36.094 5.011-.12 10.004-.22 15.015-.306a23927 23927 0 0 0-23.499 57.554c-1.688.053-3.391.086-5.079.134-1.688.053-3.371.124-5.077.172M13.513 128.548c0 8.126 3.037 11.936 10.139 11.211 7.119-.708 10.155-5.091 10.155-13.217V92.303c4.505-.44 9.025-.843 13.53-1.23v34.458c0 15.847-7.913 24.883-23.685 26.434C7.895 153.532 0 146.064 0 130.218V95.759c4.505-.489 9.009-.978 13.513-1.433m321.585 12.593c8.805 3.625 20.85 8.042 20.85 19.792 0 12.02-8.586 18.359-23.6 17.617-8.856-.44-18.118-5.715-20.75-7.3-.095-.053-.191-.1-.287-.167v-13.487c.287.167.541.32.808.523 8.081 5.108 14.761 7.991 20.21 8.665 6.495.826 9.515-1.112 9.515-5.007 0-1.618-1.349-3.219-4.271-4.653-1.669-.843-3.677-1.669-5.803-2.546-9.447-3.826-21.188-7.569-21.188-20.634 0-11.548 10.189-16.302 20.294-15.813 7.726.353 16.937 4.248 21.256 6.76.096.053.191.12.287.167v13.487a12 12 0 0 1-.808-.523c-2.664-1.703-12.045-7.333-20.733-7.738-4.371-.2-6.258 1.383-6.258 3.422 0 1.45 1.401 3.17 4.284 4.67 1.703.91 3.897 1.804 6.194 2.765m-42.967 12.121c4.485 7.485 8.958 14.971 13.445 22.473a1483 1483 0 0 0-15.199-.489 4757 4757 0 0 0-11.911-20.618c-3.089-.067-6.173-.134-9.261-.187V140.5c-4.437-.086-8.873-.134-13.31-.186V83.282c10.19.1 20.378.32 30.568.59 10.611.287 16.65 7.536 16.65 18.443 0 10.655-5.837 14.972-10.982 16.725m-22.993-10.721c4.151.1 8.317.186 12.466.267 6.225.167 7.473-3.304 7.473-6.238 0-2.933-1.267-6.49-7.473-6.642-4.15-.12-8.316-.2-12.466-.286m-149.043 47.627c-.034-19.016-.048-38.016-.048-57.032 4.486-.253 8.991-.473 13.479-.657v57.014c-4.471.22-8.961.44-13.431.675m95.111-25.811v10.925c10.206-.086 20.395-.086 30.601 0v12.036c-14.592-.1-29.184-.052-43.759.134-.034-19.016-.048-38.015-.048-57.031a2199 2199 0 0 1 43.489-.134v11.97a2282 2282 0 0 0-30.263 0v10.08q10.273-.076 20.547-.052v12.054c-6.85-.017-13.718.001-20.567.018M95.431 87.431c4.471-.267 8.941-.54 13.411-.792v57.032c-3.658.2-7.304.42-10.965.657l-.143-.22a14787 14787 0 0 0-25.793-32.536v34.559c-4.472.34-8.942.692-13.412 1.046V90.145c4.337-.34 8.671-.691 13.007-1.012l.143.187c7.912 9.912 15.824 19.892 23.753 29.889m328.163-27.142c4.471.406 8.924.843 13.395 1.281v45.08c7.675.758 15.351 1.55 23.01 2.411v11.952a2000 2000 0 0 0-36.338-3.692c-.016-19-.067-38.016-.067-57.032"/></g><defs><clipPath id="a"><path fill="#fff" d="M0 0h460v243H0z"/></clipPath></defs></svg>