<svg xmlns="http://www.w3.org/2000/svg" width="482" height="122" fill="none" viewBox="0 0 482 122"><path fill="#fff" d="M240.163 22.06a16.36 16.36 0 0 1-4.786 11.56 16.344 16.344 0 0 1-26.662-5.304 16.3 16.3 0 0 1-1.243-6.256 16.34 16.34 0 0 1 10.089-15.105 16.347 16.347 0 0 1 22.602 15.105M22.686 103.886l3.622-64.912 25.047 4.38q13.221 2.312 19.017 9.057 5.796 6.744 5.108 19.07-.64 11.484-6.432 15.821-5.79 4.338-17.737 2.248l-6.57-1.149-1.07 19.155zm23.68-43.182-.603 10.818 3.265.571q2.987.523 4.657-.596 1.671-1.118 1.815-3.69.143-2.57-1.41-4.297-1.551-1.727-4.458-2.235zm30.784 51.291 2.132-62.984 39.782 3.134-.579 17.08-18.813-1.482-.206 6.066 17.067 1.344-.546 16.133-17.067-1.344-.224 6.625 19.301 1.52-.578 17.081zm56.534 2.666.811-41.533-11.267-.338.395-20.198 42.762 1.283-.395 20.197-11.267-.338-.812 41.533zm43.117-6.299 5.913-17.274q4.84 2.975 8.57 4.261t6.897 1.1q2.221-.132 3.447-1.051t1.14-2.358q-.149-2.51-6.602-3.449-2.084-.33-3.25-.51-6.844-1.245-10.671-5.23-3.827-3.984-4.196-10.237-.574-9.708 6.017-16.208 6.593-6.498 17.864-7.165a39 39 0 0 1 10.282.754q5.099 1.06 10.362 3.515l-5.65 16.144q-3.262-2.117-6.481-3.146t-6.18-.852q-2.263.135-3.452.968-1.189.834-1.109 2.191.151 2.55 9.274 3.951 1.46.245 2.251.363 6.294 1.03 10.128 5.139 3.834 4.107 4.197 10.236.59 9.998-6.254 16.758-6.845 6.762-18.404 7.446-5.923.35-11.947-.986t-12.146-4.36m103.274-4.036-2.169-23.45-.404-5.411a204 204 0 0 1-.333-5.42 79 79 0 0 1-.91 5.588 129 129 0 0 1-1.436 6.357l-5.951 23.857-10.958 1.488-5.812-22.26a84 84 0 0 1-1.417-5.968 74 74 0 0 1-.859-5.35q-.183 2.81-.384 5.539-.2 2.73-.419 5.502l-2.312 24.059-18.065 2.453 8.933-61.149 19.01-2.581 3.597 14.331.518 2.018q2.283 9.065 2.79 15.055l.315-.042a106 106 0 0 1 1.284-8.281q.854-4.414 2.27-9.97l3.86-15.099 18.975-2.577 7.942 58.858zm46.056-25.632 7.667-.16-1.555-6.764q-1.14-5.135-1.551-7.91a49 49 0 0 1-.51-5.23l-.315.007a50 50 0 0 1-.541 5.251q-.428 2.792-1.599 7.976zm-24.502 22.291 18.455-60.321 20.516-.429L358.344 99.8l-19.816.414-1.622-7.499-13.899.29-1.598 7.567zm81.416-43.069-.04 11.407 3.263.13q2.984.12 4.601-1.272t1.626-4.104q.009-2.792-1.596-4.352-1.607-1.56-4.591-1.68zm-20.685 42.537.205-58.393 26.342 1.05q11.46.457 17.491 5.764 6.03 5.306 5.997 14.84-.023 6.222-3.08 10.129-3.059 3.906-8.234 4.378l15.475 24.392-23.477-.936-10.119-19.67-.068 19.264zm63.904 5.402.812-40.339-11.267-1.602.395-19.616 42.761 6.08-.394 19.616-11.268-1.602-.812 40.339z"/><path fill="#fff" fill-rule="evenodd" d="M73.44 23.694c51.361-22.866 81.544-8.67 98.072 29.422-34.054-39.814-66.161-36.79-98.071-29.422m125.041-.817c-20.054 16.714-21.256 26.36-24.518 36.777 8.346-11.64 17.571-21.523 30.239-24.518-5.39-4.087-4.222-8.173-5.721-12.26" clip-rule="evenodd"/><path fill="#000" fill-rule="evenodd" d="M213.193 20.425c2.509-11.813 9.623-9.815 16.345-8.99-5.824 2.246-12.531 2.724-16.345 8.99" clip-rule="evenodd"/></svg>