<svg xmlns="http://www.w3.org/2000/svg" width="430" height="49" fill="none" viewBox="0 0 430 49"><g clip-path="url(#a)"><path fill="#fff" d="M20.828 15.677c-5.188 0-11.783 4.033-11.783 14.374 0 8.838 3.645 15.806 11.783 15.806 7.627 0 12.508-5.894 12.508-15.468 0-8.75-4.162-14.712-12.508-14.712M0 44.809h5.188V3.173H0V.03h9.25v20.063h.15c2.632-5.163 6.514-7.558 12.303-7.558 9.85 0 15.713 6.954 15.713 17.854C37.415 46.033 28.041 49 22.106 49c-5.94 0-9.55-1.946-12.708-7.632h-.15v6.584H0zm315.192 0h6.012V16.725h-6.012v-3.143h10.071v6.884h.151c1.579-5.162 5.565-7.931 10.151-7.931.905 0 3.823.083 6.464 2.403l-1.954 2.717c-1.93-1.325-3.376-1.528-4.209-1.528-7.145 0-10.603 4.496-10.603 12.654v16.028h5.948v3.143h-16.019zM154.213 3.173h-4.828V.03h12.199l16.466 41.861h.151L194.667.031h12.197v3.142h-4.828V44.81h4.828v3.143h-14.16V44.81h5.273V3.173h-.376l-17.67 44.78h-3.61l-17.67-44.78h-.376V44.81h5.271v3.143h-14.161V44.81h4.828zm248.85 33.016h3.156c.303 7.707 6.322 9.668 11.016 9.668 5.791 0 8.664-3.071 8.664-7.44 0-3.525-1.932-5.219-8.177-6.191l-4.884-.749c-6.017-1.048-9.397-3.968-9.397-9.355 0-6.006 5.264-9.89 11.806-9.89 4.813 0 8.181 1.645 10.063 5.611h.148v-4.565h3.157v11.505h-3.157v-1.77c0-5.835-5.273-7.64-9.7-7.64-5.158 0-8.26 2.843-8.26 6.68 0 4.041 3.006 5.31 6.844 5.907l5.639.898C427.123 29.98 430 33.473 430 38.36c0 6.4-5.185 10.64-12.407 10.64-5.115 0-9-2.022-11.296-6.211h.073-.151v5.163h-3.156zM220.358 6.11a3.06 3.06 0 0 0 3.071-3.054A3.063 3.063 0 0 0 220.358 0a3.06 3.06 0 0 0-3.067 3.055 3.06 3.06 0 0 0 3.067 3.054m47.433 38.7V26.826c0-9.727-3.459-14.291-11.655-14.291-5.563 0-9.322 2.47-11.352 7.108h-.153v-6.061h-10.076v3.143h6.019v28.084H223.94V13.582h-9.106v3.143h5.047v28.084h-6.468v3.143h37.233V44.81h-6.015V30.195c0-8.98 4.212-14.518 10.229-14.518 5.939 0 8.872 3.517 8.872 11.15v17.982h-5.045v3.143h14.67V44.81zm-199.7-12.885c0 7.632-3.382 13.926-11.578 13.926-5.264 0-8.647-2.494-8.647-7.357 0-5.742 3.759-7.625 13.083-7.625 2.256 0 4.587.15 7.143.226zm35.037-19.39c-4.586 0-8.572 2.77-10.15 7.932h-.15v-6.884H82.751v3.143h6.015v28.084h-2.901v-.007H75.454c-3.136 0-3.301-2.352-3.301-4.79V25.473c0-7.258-3.008-12.945-13.535-12.945-6.915 0-12.177 3.418-13.27 10.312h4.139c1.021-4.175 3.942-7.17 9.281-7.17 5.64 0 9.324 1.654 9.324 9.212v2.843h-8.195c-11.28 0-16.092 3.263-16.092 10.544 0 7.184 4.662 10.724 11.805 10.724 5.94 0 10.377-2.096 12.783-8.905h.15s-.372 4.379 1.488 6.23c1.954 1.944 4.662 1.63 6.404 1.63l6.317-.001v.005h17.444V44.81h-7.369V28.781c0-8.158 3.459-12.654 10.602-12.654.834 0 2.277.203 4.208 1.529l1.954-2.718c-2.642-2.32-5.56-2.403-6.463-2.403m265.708 19.39c0 7.632-3.384 13.926-11.58 13.926-5.262 0-8.647-2.494-8.647-7.357 0-5.742 3.757-7.625 13.083-7.625 2.256 0 4.587.15 7.144.226zm21.679 12.885V.03H379.99v3.143h6.466V44.81h-.123v-.007h-10.137c-3.135 0-3.3-2.352-3.3-4.79v-14.54c0-7.258-3.009-12.945-13.536-12.945-6.915 0-12.177 3.418-13.27 10.312h4.139c1.023-4.175 3.942-7.17 9.282-7.17 5.638 0 9.325 1.654 9.325 9.212v2.843h-8.195c-11.282 0-16.095 3.263-16.095 10.544 0 7.184 4.663 10.724 11.806 10.724 5.943 0 10.376-2.096 12.783-8.905h.153s-.374 4.379 1.485 6.23c1.953 1.944 4.663 1.63 6.405 1.63h2.812v.004h16.54V44.81zM115.776 27.042c1.231-7.438 5.77-11.365 11.778-11.365 6.691 0 10.897 3.626 11.902 11.435.029.221.052.774.052.774h-23.799s-.04-.191.067-.844m11.701 18.815c-7.36 0-11.953-6.13-11.953-14.828h27.958c0-10.852-6.312-18.494-15.402-18.494-10.641 0-16.616 7.138-16.616 18.155 0 10.682 5.535 18.31 16.24 18.31 7.536 0 13.427-3.759 15.17-11.45h-4.02c-1.92 5.66-5.935 8.307-11.377 8.307M281.96 27.042c1.23-7.438 5.77-11.365 11.776-11.365 6.694 0 10.897 3.626 11.904 11.435.029.221.05.774.05.774h-23.799s-.04-.191.069-.844m11.699 18.815c-7.36 0-11.952-6.13-11.952-14.828h27.959c0-10.852-5.685-18.494-15.403-18.494-10.64 0-16.615 7.138-16.615 18.155 0 10.682 5.532 18.31 16.241 18.31 7.533 0 13.427-3.759 15.169-11.45h-4.02c-1.922 5.66-5.939 8.307-11.379 8.307"/></g><defs><clipPath id="a"><path fill="#fff" d="M0 0h430v49H0z"/></clipPath></defs></svg>