<svg xmlns="http://www.w3.org/2000/svg" width="522" height="114" fill="none" viewBox="0 0 522 114"><path fill="#fff" d="m134.663 39.399 22.7-23.815h2.146v14.125h19.561v11.826h-19.561V71.14c-.005 4.49.516 6.343 2.276 8.111 1.597 1.589 4.134 2.435 7.958 2.435 4.389 0 7.681-1.4 11.044-2.972v11.87c-4.493 2.516-9.691 3.817-15.384 3.817-6.41 0-11.538-1.811-14.922-5.21-3.433-3.455-4.867-6.773-4.867-14.49V41.536h-10.951zm181.867 47.59c-8.007 5.315-15.72 7.413-25.411 7.413-21.148 0-31.925-16.522-31.925-32.577 0-19.157 12.896-33.374 30.806-33.374 17.203 0 28.426 14.022 26.9 36.6h-43.235c.891 9.771 7.632 16.262 19.415 16.262 8.148 0 16.426-2.706 23.45-7.879zm-27.285-46.002c-8.23 0-13.869 5.325-15.303 13.756h29.203c-.771-8.637-5.991-13.756-13.9-13.756m56.086 39.165c3.651 1.117 7.91 1.486 11.978 1.486 11.098 0 17.747-8.535 17.747-20.849 0-13.084-6.046-19.666-15.672-19.666-4.976 0-9.441 1.67-14.053 5.644zm0-45.818c5.335-3.91 10.392-5.883 16.574-5.883 15.503 0 27.182 12.834 27.182 31.21 0 20.28-13.526 34.877-33.739 34.877-7.583 0-18.29-1.91-23.907-4.701V.889h13.89zm118.448-3.78L472.416.89h14.835l-13.178 29.666m31.533 25.386c12.163 5.829 15.932 11.273 15.932 18.685 0 10.356-8.615 19.775-21.755 19.775-6.589 0-14.243-1.882-21.43-5.363V74.6c7.154 5.032 15.536 7.315 20.447 7.315 5.855 0 8.849-2.619 8.849-6.116 0-3.92-2.635-5.58-8.942-8.47-13.162-6.078-19.697-11.164-19.697-20.789 0-9.646 8.817-18.088 21.104-18.088 6.459 0 11.782.981 18.524 4.614v13.507c-7.312-3.904-11.44-5.965-17.818-5.965-5.318 0-7.871 2.343-7.871 5.466 0 3.465 2.048 4.782 12.657 9.869m-88.62 57.693H402.07l15.579-32.556-25.352-51.365h16.145l16.144 36.356 15.177-36.356h15.053zM97.279 28.456c20.017 0 32.196 15.93 32.196 32.968 0 17.047-12.179 32.978-32.196 32.978-20.023 0-32.197-15.93-32.197-32.979 0-17.036 12.174-32.967 32.197-32.967m0 13.09c-10.452 0-17.693 8.485-17.693 19.877 0 11.404 7.241 19.884 17.692 19.884s17.693-8.48 17.693-19.884c0-11.392-7.241-19.878-17.693-19.878m110.007-3.28c4.644-5.65 12.792-9.814 20.185-9.814 14.955 0 20.018 11.246 20.018 22.6v42.093h-13.901v-36.54c0-10.878-3.221-15.064-11.044-15.064-5.16 0-10.554 3.286-15.258 8.535v43.069h-13.896V.889h13.896zM55.88 67.778c0 14.733-12.624 26.618-29.322 26.618-9.414 0-18.17-2.906-26.558-6.783V71.19c9.028 5.314 17.274 9.137 26.981 9.137 8.708 0 13.38-5.309 13.38-11.74 0-17.47-39.65-16.24-39.65-42.234C.712 12.016 12.924 0 29.916 0 37.9 0 44.83 2.012 51.823 5.683v15.979c-5.807-4.49-14.553-7.58-21.686-7.58-9.707 0-13.976 4.847-13.976 10.747 0 16.798 39.72 15.193 39.72 42.95"/></svg>