<svg xmlns="http://www.w3.org/2000/svg" width="500" height="231" fill="none" viewBox="0 0 500 231"><path fill="#fff" fill-rule="evenodd" d="M249.7 227.701c-136.398 0-246.398-50.6-246.398-112.2 0-60.5 110-112.2 246.398-112.2 136.399 0 246.399 51.7 246.399 112.2 0 61.603-110 112.2-246.399 112.2M249.7 0C112.2 0 0 50.6 0 115.499 0 181.503 112.2 231 249.7 231c137.504 0 249.701-49.5 249.701-115.501C499.401 50.603 387.204 0 249.7 0m-15.401 162.799h6.601v-2.196h-4.399v-1.1h4.399v-2.202h-4.399v-1.1h4.399v-2.196h-6.601zm16.501 0v-4.401h-3.299v1.105h1.1c0 1.1-1.1 1.1-1.1 1.1-2.199 0-2.199-1.1-2.199-2.202 0-1.1 0-2.197 1.099-2.197 1.1 0 1.1 0 2.2 1.1h2.199c0-2.197-2.199-3.296-4.399-3.296-2.199 0-4.398 2.196-4.398 4.395 0 3.302 2.199 4.402 4.398 4.402 1.1 0 2.2 0 2.2-1.1l1.099 1.1h1.1zm2.199 0h2.203v-2.196h-2.203zm7.704-8.794v5.501c0 2.197 2.196 3.296 4.396 3.296 3.302 0 4.401-1.099 4.401-3.296v-5.501h-3.296v5.501c0 1.1 0 1.1-1.105 1.1-1.1 0-1.1 0-1.1-1.1v-5.501zm9.894 8.794h3.302v-2.196h-3.302zm8.804-5.498h3.301c-1.105-2.197-2.202-3.296-4.401-3.296q-3.303 0-3.302 3.296c0 3.302 4.402 2.202 4.402 3.302h-4.402c0 1.1 1.1 2.196 3.302 2.196 2.196 0 4.401 0 4.401-2.196 0-3.302-5.501-3.302-5.501-4.402h2.2zm4.401 5.498h2.197v-2.196h-2.197zm7.698 0h3.302v-2.196h1.1c2.196 0 4.401-1.1 4.401-3.302 0-2.197-2.202-3.296-4.401-3.296H291.5zm8.803 0h2.197l1.099-1.099h2.203l1.099 1.099h2.197l-3.296-8.797h-2.203zm8.795-8.794v2.196h3.302v6.598h2.196v-6.598h3.302v-2.196zm9.903 8.794h2.202v-2.196h-2.202zm16.498-4.398c0-2.197-1.1-4.396-4.402-4.396-2.196 0-4.396 2.196-4.396 4.396 0 3.302 2.197 4.401 4.396 4.401 3.305-.003 4.402-1.099 4.402-4.401m2.205 4.398h2.196v-3.296h3.302v-1.105H339.9v-2.197h4.402v-2.196h-6.598zm7.698 0h3.302v-3.296h2.196v-1.105h-2.196v-2.197H352v-2.196h-6.598zm7.698 0h3.301v-2.196H353.1zm-156.202-40.697c15.402-19.8 6.601-11.002 12.1-16.501h-15.399l-1.099 2.2c-12.1-4.402-26.402-9.9-54.999 21.999-8.8 11-17.601 13.202-25.301 17.598-20.9 8.803-25.302-12.099-3.302-38.498 41.802-50.6 58.3-40.7 50.602-27.5-6.601 12.1-18.7 24.201-24.201 26.401-2.2 5.501 19.8 6.598 45.101-19.8h-4.399C180.4 72.602 181.5 49.503 136.398 61.6c-16.498 4.398-53.899 34.098-62.699 64.9-3.302 14.296 2.2 61.6 66.001 16.501 2.2 9.895 19.8 6.598 32.999-5.501-5.501 12.099 9.9 15.396 24.199 5.501l-20.897 26.396H190.3l23.099-30.797c0 6.598 4.399 16.501 38.501 0-2.2 9.9 12.099 15.401 34.099 0-3.297 7.697 6.598 16.501 32.999 0-3.296 10.999 16.501 19.797 41.802-7.704 1.1-1.1 1.1-1.1 4.402-1.1 2.196 1.1-4.402 18.704 12.099 18.704 12.1 0 19.803-5.502 25.296-9.9l3.302-15.402c-7.698 6.598-14.302 9.9-16.501 11-4.402 0-9.9 2.197-7.698-13.199 9.894-9.903 35.199-23.102 38.5-51.703 2.197-12.099-30.802-2.199-48.4 39.601-1.1 3.302-2.202 7.7-5.501 11.005-3.302 2.197-2.203-3.302-2.203-9.903 0-5.501-15.395-12.102-29.697-1.102-13.199 9.9-13.199 16.498-18.697 23.102-6.604 3.296-25.302 10.999-1.106-19.803h8.803l7.698-7.698h-10.999l14.301-17.6h-16.501l-13.199 17.6h-9.9l-7.704 8.8h9.901c-6.599 16.498-54.999 45.099-6.599-8.8h-15.401c-15.401 20.897-35.198 34.099-24.199 20.897 14.299-16.498 6.601-26.398-10.999-18.698v-2.199h-13.202c-3.299 3.299-17.601 20.897-24.199 25.298-6.596 5.504-20.897 11.003-5.499-7.695m18.701-28.6c-1.1 1.1-2.2 1.1-2.2 2.2v5.501zm5.501-1.1c-1.1 0-2.199 0-2.199 1.1v5.501zm7.701-2.2c-2.2 0-2.2 1.1-2.2 2.2V97.9zm7.7-1.102c-2.199 0-2.199 0-2.199 2.2V96.8zm8.801-1.1c-2.2 0-2.2 1.1-2.2 2.2V95.7zm8.797 0c-2.196-1.099-3.299 0-3.299 1.1v5.502zm8.801 0c-2.197 0-2.197 0-2.197 2.2V94.6zm8.803 0c-2.203 0-2.203 0-2.203 2.2V94.6zm8.797 1.1c-3.296 0-3.296 0-3.296 1.1V94.6zm6.598 1.103c-2.196-1.1-2.196-1.1-2.196 1.1v5.5zm7.704 1.1c-2.202 0-2.202 0-2.202 1.1V97.9zm5.501 2.199c-2.202 0-2.202 0-2.202 1.1V99zm-11.002-60.5-2.203 4.402 4.402-1.1 3.302 2.2-1.1-4.4 4.396-2.199-4.396-1.1-1.105-4.401-2.197 4.401-4.401-1.1zm40.699 11-2.196 3.299 4.401-1.1 2.197 3.302 1.1-4.402 3.302-1.1-3.302-1.102V38.5l-3.297 3.301-4.401-2.199zm-116.598-9.9-1.1 4.399 3.3-3.302 4.401 1.102-2.199-3.3 2.199-3.299-4.401 1.1-2.2-4.402V30.8l-4.401 1.1zm92.4 60.5c0 1.1 1.099 1.1 1.099-1.1 0-1.1 0-1.1 1.1-2.2 1.1-3.301-2.197-3.301-3.296-5.5v-1.1c0-3.302-5.502-4.4-5.502-4.4 0-1.099-1.105-3.298-1.105-3.298-1.1-2.2-2.196-3.302-4.396-4.402-1.105-2.2-1.105-2.2-2.202-4.399-2.197-4.398-6.598-11-18.698-16.5-3.302-1.1-3.302 0-4.401-2.2-2.197-2.2-2.197-2.2-4.402-3.302-1.099-1.1-2.196-1.1-2.196-2.2v-9.9c0-1.099 1.099-2.199 0-3.298-1.1-1.1-1.1-3.302-2.203-4.402-1.099-1.1-1.099-2.2-2.196-3.299-1.097-1.1-3.302-1.1-3.302-2.2v-7.697c0-1.1-1.1-1.1-1.1 0v7.698c0 1.1-2.199 1.1-3.299 2.199-1.099 1.1-1.099 2.2-1.099 3.3h-1.1c-1.1 1.099-1.1 2.198-2.2 3.301 0 1.1 1.1 2.2 1.1 3.299v12.1c-3.302 1.1-5.501 2.199-6.601 4.401 0 1.1 0 1.1-1.099 2.2-4.402 1.1-11.003 4.398-18.701 14.298-2.199 3.302-3.302 5.501-3.302 8.8-2.199 1.1-4.399 3.3-4.399 5.502-1.099 1.1 0 1.1-1.099 2.2-1.103 1.099-3.302 2.199-4.402 4.398 1.1 2.2-2.199 3.302-2.199 4.402v2.199c0 1.1 1.099 1.1 1.099 1.1 1.1 1.1 1.1 5.501 1.1 8.8h1.1c1.1 0 1.1 0 1.1-2.199v-7.701c2.202 0 3.301-1.1 5.501-2.2h1.1c7.7-2.199 16.501-4.401 24.201-4.401 14.299-2.2 30.797-1.1 46.198 0 4.402 1.1 6.599 1.1 9.901 2.2 1.099 1.099 4.401 2.199 6.598 2.199 0 0 1.099 1.1 2.202 1.1 1.1 1.102 1.1 2.202 1.1 2.202M153.999 198.004l-5.501-7.704c2.202 0 4.401-2.196 4.401-5.501 0-3.296-3.302-5.501-7.7-5.501h-7.698v18.703h5.501v-6.604l4.399 6.604zm25.301-14.302h6.601V179.3h-12.099v18.704h12.099v-4.402H179.3V191.4h5.502v-4.396H179.3zm41.8 2.197v-5.502c-1.1-1.099-3.299-1.099-4.399-1.099-3.299 0-6.601 1.099-8.8 2.202-1.1 2.196-2.2 4.396-2.2 7.698 0 2.196 1.1 4.401 3.3 6.598 2.202 2.202 4.401 3.302 7.7 3.302 1.1 0 2.2-1.1 4.399-1.1v-5.501c-1.1 1.099-3.299 1.099-4.399 1.099-3.299 0-5.498-1.099-5.498-4.401s2.199-5.502 5.498-5.502c1.1.009 3.299 1.109 4.399 2.206m42.899 2.205c0-5.502-5.501-8.804-11-8.804-6.598 0-12.099 3.302-12.099 8.804 0 6.598 5.501 10.999 12.099 10.999 6.599 0 11-4.401 11-10.999m37.401 9.9-6.598-7.704c3.296 0 4.401-2.196 4.401-5.501 0-3.296-3.301-5.501-6.603-5.501h-8.798v18.703h5.501v-6.604l5.502 6.604zm18.698-18.704v18.704h7.703c6.598 0 11-3.302 11-8.804 0-5.501-4.402-9.9-11-9.9zm49.5 5.502 3.302-4.402c-2.197-1.1-4.402-1.1-6.598-1.1-4.402 0-7.704 2.203-7.704 5.502 0 4.401 2.202 5.501 5.501 5.501 1.106 1.1 3.302 1.1 3.302 2.202 0 1.1-1.099 2.197-2.196 2.197-2.203 0-3.302-1.1-4.402-2.197l-3.302 4.396c2.202 1.105 5.501 2.202 7.704 2.202 2.196 0 4.396-1.099 5.501-2.202 2.196-1.1 2.196-3.296 2.196-4.396 0-3.302-2.196-4.401-4.401-5.501h-2.197c0-1.105-2.202-1.105-2.202-2.202s1.105-2.197 2.202-2.197c2.197-.003 3.294 1.097 3.294 2.197M170.5 45.102v4.401l3.299-3.302 4.399 1.1-3.299-4.402 2.199-3.299-4.399 1.1-3.301-3.3 1.102 4.4-4.402 2.199zm56.101 114.401h1.1c2.199 0 2.199 1.1 2.199 2.197v1.099h2.2v-2.196c0-1.1 0-1.1-1.1-2.202 1.1 0 1.1-1.1 1.1-1.1q0-3.296-3.299-3.296h-4.402v8.797h2.199zm36.299-110c-2.197 0-6.599-1.102-8.804-1.102-3.299 0-4.398 0-6.598 1.102-2.199 0-2.199 1.1-4.401 1.1 0 0-1.1 0 0-1.1 2.199-2.2 5.501-3.302 10.999-3.302 5.502 0 5.502 1.1 7.704 1.1 1.1 1.1 2.196 1.1 2.196 2.2 1.103.002.003.002-1.096.002m-6.599 14.299v-11c0-1.1-2.202-3.299 0-2.2 0 1.1 1.1 2.2 2.197 3.3 2.202 4.401 2.202 6.6 3.302 11.002 0 0 1.1 1.1 0 2.2h-4.402c-1.097-.003-1.097-1.103-1.097-3.302m2.2-13.2c1.099 0 1.099 0 2.202 1.1 1.1 1.1 1.1 1.1 3.296 2.2 0 1.1 0 1.1 1.1 2.2 3.302 3.298 3.302 6.6 5.501 9.9 0 1.099 0 1.099-1.1 1.099-2.196 1.1-2.196 0-4.401 0 0 0 0-2.2-1.1-3.3-1.099-4.4-2.196-8.8-4.401-12.099zm-6.601 1.1c1.099 0 1.099-2.199 1.099 0v15.399h-4.398c-1.1 0 0-1.1-1.1-1.1 0 0 2.199-6.6 3.299-11 1.1-1.1 0-1.1 1.1-3.299m-2.2 0c1.1 0 1.1 0 0 1.1-1.099 1.1-1.099 3.3-2.199 5.501-1.1 3.3-1.1 5.502-2.199 8.8-1.1 1.1-1.1 1.1-2.2 1.1h-3.299v-1.1c0-1.099 1.1-2.199 1.1-4.398 1.1-1.1 1.1-2.2 2.199-3.302 1.1-1.1 1.1-2.2 2.2-3.299l2.199-2.2zm16.504 1.1c2.197 1.1 3.296 2.2 4.396 3.3 3.302 3.298 4.402 5.5 6.604 9.9 1.1 1.099 1.1 2.199 0 2.199h-2.202s-1.1 0-2.197-1.1c0-1.1-2.202-5.501-3.302-8.8-2.196-4.402-6.598-5.502-5.501-6.601 1.097.002 2.202 1.102 2.202 1.102m-20.902 0s2.199-1.1 1.099-1.1c0 1.1-2.199 3.3-2.199 3.3-2.199 2.199-4.399 4.398-5.498 6.6-1.103 2.2-2.2 4.4-2.2 6.601 0 0 0 1.1-1.1 1.1-2.199 0-3.301 1.1-3.301-1.1 1.099-3.299 3.301-5.5 5.501-7.7 1.102-2.2 2.199-3.3 3.302-4.399l1.099-1.1c1.094-1.102 1.094-1.102 3.297-2.202M221.1 69.303c1.1-3.302 7.701-11 13.202-13.202 1.1-1.1 2.199-2.2 3.299-2.2 1.103 0-1.1 1.1-2.199 1.1l-1.1 1.1c-5.501 3.3-7.701 7.7-9.9 12.1-1.1 1.1-1.1 3.299-2.2 4.398-1.099 0-2.199 1.1-2.199 0s1.097-2.199 1.097-3.296m17.601-14.301c1.099 0 3.299-2.2 2.199-1.1l-4.399 4.401c-5.501 5.502-6.601 9.9-6.601 11-1.099 1.1-2.199 1.1-3.302 1.1-1.099 0 0-1.1 0-2.2 1.1-1.1 1.1-2.199 2.2-3.299 1.099-2.199 2.199-4.401 4.399-5.5 2.199-1.1 2.199-2.2 3.301-3.3 1.103-.003 2.203-1.102 2.203-1.102m36.298 2.199c-1.1-1.1-4.402-2.2-3.296-3.302 0 0 2.196 1.1 3.296 2.2 4.402 3.298 6.598 7.7 8.803 13.201H280.5c0-2.2 0-3.302-1.099-5.501-1.1-2.2-2.197-3.302-3.302-4.402zm4.402 1.102c1.099 0 1.099 1.1 2.196 1.1 4.402 4.402 5.501 5.501 7.704 9.9v1.1h-2.203l-1.099-1.1c-1.1-2.2-2.197-5.501-3.297-6.6-1.102-1.1-2.202-3.303-3.301-4.4M250.8 25.301s1.1-1.1 3.299-1.1c1.106 0 2.202 1.1 2.202 1.1v1.1c-2.202-1.1-3.302-1.1-5.501 0zm-2.199 2.2c2.199 0 6.604-1.1 8.8 0 1.1 0 2.197 1.1 1.1 1.1h-9.9c-1.1 0 0-1.1 0-1.1m9.9 3.302h-11l1.1-1.1c3.299-1.103 7.7 0 9.9 1.1h1.099c-.002 1.1-1.099 0-1.099 0M251.9 45.1V31.9c1.099 0 1.099 1.1 1.099 1.1v11.002s0 1.1-1.099 1.1m4.401 0c-1.099 0-1.099-1.1-1.099-1.1V33s0-1.1 1.099-1.1zm-7.7 0-1.1-1.1v-9.9c0-1.099 1.1-1.099 1.1-1.099 1.099 0 1.099 0 1.099 1.1v9.9s0 1.1-1.099 1.1m9.9 0V33.002c1.099 0 1.099 0 1.099 1.1v9.9c-.002 0-.002 1.1-1.099 1.1m-3.299 30.8c6.598 0 18.697 0 28.597 2.2 6.598 0 15.402 2.199 16.501 4.401 2.197 3.3-8.803-2.2-15.401-3.302-17.598-2.2-35.201-2.2-48.401 0-9.9 1.1-14.301 2.2-24.201 6.601-2.2 1.1 0-3.299 8.8-5.501 12.102-3.296 25.304-4.399 34.105-4.399m47.298 13.2c-2.197-1.1-6.598-3.3-9.9-3.3-6.599-2.2-12.1-2.2-22-3.299-13.199 0-19.797-1.102-31.896 1.1-11.003 1.1-18.701 2.2-26.402 6.6-4.398 2.2-2.199-1.099-2.199-1.099 3.302-1.1 5.501-3.299 16.501-5.501 7.701-1.1 20.9-3.3 27.498-3.3 6.604 0 17.604 0 29.703 2.2 5.501 1.1 16.501 2.2 19.797 5.499-.003 0 1.1 2.202-1.102 1.1m-75.899 69.3v-2.197h2.2s1.099 0 1.099 1.1l-1.099 1.099zm-83.599 29.703v-5.502c2.2 0 4.399 1.1 4.399 3.297 0 2.205-2.199 2.205-4.399 2.205m161.7-30.803 1.1 2.202h-2.203zm25.298 1.1c0-1.1 0-2.197 1.1-2.197 1.105 0 2.202 1.1 2.202 2.197 0 1.105-1.099 2.202-2.202 2.202-1.1 0-1.1-1.1-1.1-2.202m-34.098 0h-1.1v-2.197h1.1s1.099 0 1.099 1.1c0 1.099-.003 1.097-1.099 1.097m-49.501 29.703c0-2.203 3.299-4.402 6.598-4.402 3.302 0 5.502 2.197 5.502 4.402 0 3.296-2.197 6.598-5.502 6.598-3.299 0-6.598-3.302-6.598-6.598m-12.102-60.5c-5.501 5.501-9.9 5.501-12.099 5.501-1.1-1.1-1.1-4.402 6.601-11 5.501-5.501 10.999-8.8 12.099-7.7 2.199 2.199-1.1 7.697-6.601 13.199m55.002 60.5v-5.502h1.099c1.1 0 3.302 1.1 3.302 3.297 0 2.202-2.202 2.202-3.302 2.202h-1.099zm45.101-55.002c1.1-8.803 5.501-13.199 12.099-16.501-1.099 8.798-1.099 9.9 2.203 11-3.302 4.404-14.302 14.299-14.302 5.501m-8.803 60.5v-9.9h2.202c3.296 0 5.501 2.197 5.501 5.501s-3.302 4.402-6.598 4.402zm-151.8-67.098c-8.8 6.598-14.299 9.894-16.501 8.798-1.1-1.1 2.2-7.698 9.9-14.296 5.501-4.402 17.601-9.903 18.701-7.701 1.102 2.196-3.3 5.495-12.1 13.199M403.702 81.4c12.1-12.1 7.698-1.1-2.202 11.002-5.501 7.698-6.598 8.801-12.099 13.199-6.598 6.601 4.401-14.298 14.301-24.201m-149.603-11c6.604-1.1 19.803 0 28.603 1.1 6.599 1.1 9.895 2.199 12.1 4.398 2.196 3.302-5.501 0-12.1-1.1-13.202-2.199-28.603-3.301-46.201 0-10.999 1.1-16.501 3.3-18.7 5.502-3.299 1.1-2.199-3.3 7.701-6.601 7.697-2.197 21.999-3.299 28.597-3.299" clip-rule="evenodd"/></svg>