<svg xmlns="http://www.w3.org/2000/svg" width="597" height="79" fill="none" viewBox="0 0 597 79"><g fill="#fff" clip-path="url(#a)"><path d="M0 54.02v-54l11 .02c-.31 16.59 2.94 31.64 9.79 47.05-7.27 3.17-13.97 5.5-20.79 6.93m0 23v-18c8.35-.25 17.06-1.48 25.33-3.01 4.83 7.75 9.88 14.36 15.74 21zm430.73-17.71c-7.67 11.01-19.62 17.34-32.92 17.44l-38.84.29V.01l40.51.4c13.03.13 24.35 7.26 31.43 17.62 7.15 12.95 7.32 28.02-.18 41.28m-12.61-21.82c-.45-12.35-9.12-22.07-21.25-22.23l-19.89-.27v47.07l19.9-.25c12.95-.16 21.73-11.15 21.24-24.32m-250.7 38.92c-6.49.58-12.46.6-19.1.35l-14.64-21.28h-16.21l.02 21.32H99.76L99.75.01h35.33c6.05.01 12.19 1.91 17.53 4.22 9.25 5.31 14.11 14.2 13.68 24.85-.41 10.14-5.71 18.95-15.66 23l16.79 24.32zm-32.04-35.58c8.39-.13 12.92-6.56 12.76-13.32-.16-6.94-5.36-12.53-13.22-12.6l-17.46-.15v26.35zm440.68 24.73c-7.53 7.23-16.89 11.23-27.13 11.29l-33.96.21V7.77l35.96.28c10.21.08 19.21 4.95 25.94 12.1 10.36 13.39 10.38 32.09-.81 45.41m-7.97-24.04c-.35-11.06-7.77-19.8-18.46-20.06l-18.67-.45V63.6l18.3-.32c11.46-.2 19.2-10.06 18.83-21.75zM335.74 76.63l-16.26.1.02-28.22h-31.04l.02 28.24-16.25-.05-.02-68.84 16.25-.07.01 27h31.02l.01-26.99 16.25.06zm150.68-14.28-32.14-.09-5.93 14.7-16.7-.02 30.84-69.17h15.9l30.82 68.97-16.96.39-5.83-14.77zm-5.38-12.58L470.37 23.9l-10.74 25.88h21.41zm-261.89 5.47c4.26 6.46 11.05 8.97 17.53 9.19 7.05.24 13.08-2.61 18.08-8.28l10.52 9.6c-7.33 9.31-18.03 12.4-29.25 12.47-19.27.12-35.19-12.94-37.01-32.13-1.95-20.62 12.35-37.46 33-39.36 12.57-1.16 24.92 2.31 33.21 12.09l-10.41 9.66c-9.1-10.34-25.03-11.13-34.21-.84-6.66 7.47-7.06 19.12-1.47 27.6zM70.14.08c-9.32 17.95-23.56 32.25-41.26 42.83C22.21 29.07 18.7 15 17.98 0l52.15.08zM55.12 77.14c-8.05-6.93-14.69-15.1-20.7-24.19 16.84-6.13 30.23-15.4 42.53-27.74l.08 51.78zm136.87-.32-16.23-.01-.01-68.98 16.24-.02zm404.8-6.45c0 2.23-1.75 3.98-4.03 3.98s-4.06-1.75-4.06-3.98 1.8-3.94 4.06-3.94 4.03 1.75 4.03 3.94m-7.08 0c0 1.75 1.3 3.14 3.07 3.14s3-1.39 3-3.12-1.27-3.17-3.02-3.17-3.05 1.42-3.05 3.14zm2.42 2.06h-.91v-3.94c.36-.07.86-.12 1.51-.12.74 0 1.08.12 1.37.29.22.17.38.48.38.86 0 .43-.34.77-.82.91v.05c.38.14.6.43.72.96.12.6.19.84.29.98h-.98c-.12-.14-.19-.5-.31-.96-.07-.43-.31-.62-.82-.62h-.43zm.03-2.23h.43c.5 0 .91-.17.91-.58 0-.36-.26-.6-.84-.6-.24 0-.41.02-.5.05z"/></g><defs><clipPath id="a"><path fill="#fff" d="M0 0h596.79v78.22H0z"/></clipPath></defs></svg>